<?xml version="1.0" encoding="UTF-8"?>
<svg id="Layer_2" data-name="Layer 2" xmlns="http://www.w3.org/2000/svg" xmlns:xlink="http://www.w3.org/1999/xlink" viewBox="0 0 311.31 109.34">
  <defs>
    <style>
      .cls-1 {
        font-size: 6.39px;
      }

      .cls-1, .cls-2, .cls-3, .cls-4, .cls-5, .cls-6 {
        fill: #231f20;
      }

      .cls-1, .cls-2, .cls-4, .cls-5, .cls-6 {
        font-family: MyriadPro-Regular, 'Myriad Pro';
      }

      .cls-7 {
        fill: #9bcb3c;
      }

      .cls-2 {
        font-size: 6.39px;
      }

      .cls-4 {
        font-size: 6.39px;
      }

      .cls-8, .cls-9 {
        fill: none;
      }

      .cls-5 {
        font-size: 6.39px;
      }

      .cls-10 {
        clip-path: url(#clippath-1);
      }

      .cls-9 {
        stroke: #231f20;
        stroke-miterlimit: 10;
        stroke-width: .5px;
      }

      .cls-6 {
        font-size: 6.39px;
      }

      .cls-11 {
        clip-path: url(#clippath);
      }
    </style>
    <clipPath id="clippath">
      <rect class="cls-8" width="311.31" height="69.61"/>
    </clipPath>
    <clipPath id="clippath-1">
      <rect class="cls-8" width="311.31" height="114.59"/>
    </clipPath>
  </defs>
  <g id="Layer_1-2" data-name="Layer 1">
    <path class="cls-3" d="M28.15,94.69l-.19,2.49c-1.13-.52-2.4-.78-3.8-.78-1.68,0-2.99.5-3.93,1.5-.94,1-1.42,2.28-1.42,3.85s.45,2.8,1.35,3.78c.9.99,2.12,1.48,3.66,1.48.73,0,1.38-.07,1.94-.21v-3.85h-3.13v-2.33h5.96v7.95c-1.87.51-3.47.76-4.78.76-2.48,0-4.45-.62-5.91-1.87-1.46-1.25-2.19-3.08-2.19-5.51s.72-4.45,2.16-5.82c1.44-1.37,3.42-2.06,5.94-2.06,1.52,0,2.97.2,4.33.61Z"/>
    <path class="cls-3" d="M31.45,109.09v-14.76h3.42c.52,0,.92,0,1.19.01.27,0,.66.02,1.15.05.49.03.88.08,1.16.15.28.07.62.17,1,.29.39.12.69.28.92.48.23.2.45.43.66.71.22.27.38.61.48.99.1.39.15.83.15,1.32,0,.89-.28,1.65-.82,2.28-.55.63-1.29,1.01-2.22,1.14v.04c.61.04,1.13.55,1.56,1.52l2.37,5.77h-3.3l-1.78-4.61c-.23-.58-.48-.98-.75-1.19-.28-.22-.71-.33-1.3-.33h-.95v6.13h-2.96ZM34.41,96.66v3.97h.97c.42,0,.79-.02,1.12-.06.32-.04.65-.13.98-.26.33-.13.58-.34.76-.63.18-.29.26-.65.26-1.09s-.09-.77-.26-1.05c-.18-.27-.43-.47-.77-.59-.34-.12-.66-.2-.96-.23-.3-.04-.68-.05-1.13-.05h-.97Z"/>
    <path class="cls-3" d="M44.62,109.09v-14.76h8.71v2.33h-5.75v3.64h5.26v2.33h-5.26v4.14h5.79v2.33h-8.75Z"/>
    <path class="cls-3" d="M56.37,109.09v-14.76h8.71v2.33h-5.75v3.64h5.26v2.33h-5.26v4.14h5.79v2.33h-8.75Z"/>
    <path class="cls-3" d="M67.98,109.09v-14.76h3.64l5.62,11.03h.04v-11.03h2.83v14.76h-3.62l-5.64-11.03h-.04v11.03h-2.83Z"/>
    <path class="cls-3" d="M89.01,109.09v-14.76h3.74c4.1,0,6.15,1.49,6.15,4.46,0,1.62-.52,2.81-1.55,3.56-1.04.75-2.41,1.13-4.13,1.13h-1.25v5.6h-2.96ZM91.97,96.66v4.5h1.04c1.87,0,2.81-.73,2.81-2.2,0-.8-.26-1.39-.78-1.75-.52-.37-1.2-.55-2.03-.55h-1.04Z"/>
    <path class="cls-3" d="M100.77,109.09v-14.76h3.42c.52,0,.92,0,1.2.01.28,0,.66.02,1.15.05.49.03.88.08,1.16.15.28.07.62.17,1,.29.39.12.69.28.92.48.22.2.45.43.67.71.22.27.38.61.48.99.1.39.15.83.15,1.32,0,.89-.27,1.65-.82,2.28-.55.63-1.29,1.01-2.22,1.14v.04c.61.04,1.13.55,1.56,1.52l2.37,5.77h-3.3l-1.78-4.61c-.22-.58-.48-.98-.75-1.19-.27-.22-.71-.33-1.3-.33h-.95v6.13h-2.96ZM103.73,96.66v3.97h.97c.42,0,.8-.02,1.12-.06.32-.04.65-.13.98-.26.33-.13.58-.34.76-.63.18-.29.26-.65.26-1.09s-.09-.77-.26-1.05c-.18-.27-.43-.47-.77-.59-.34-.12-.66-.2-.96-.23-.3-.04-.68-.05-1.13-.05h-.97Z"/>
    <path class="cls-3" d="M113.22,101.67c0-2.31.63-4.15,1.89-5.53,1.26-1.37,3.04-2.06,5.34-2.06s4.04.69,5.32,2.08c1.27,1.39,1.91,3.22,1.91,5.51s-.63,4.15-1.9,5.56c-1.27,1.41-3.04,2.11-5.33,2.11s-4.09-.7-5.35-2.09-1.88-3.26-1.88-5.58ZM116.3,101.67c0,.94.13,1.8.39,2.58.26.78.71,1.43,1.35,1.97.64.54,1.44.8,2.4.8s1.76-.27,2.4-.8c.64-.54,1.09-1.19,1.35-1.97.26-.77.39-1.63.39-2.58,0-1.45-.35-2.69-1.05-3.72-.7-1.03-1.73-1.54-3.1-1.54s-2.4.51-3.1,1.54c-.7,1.03-1.05,2.27-1.05,3.72Z"/>
    <path class="cls-3" d="M130.38,109.09v-14.76h4.04c5.68,0,8.52,2.46,8.52,7.38s-2.84,7.38-8.52,7.38h-4.04ZM133.34,96.66v10.1h1.65c1.31,0,2.45-.46,3.41-1.37.96-.92,1.45-2.14,1.45-3.68s-.48-2.76-1.45-3.68c-.96-.92-2.1-1.37-3.41-1.37h-1.65Z"/>
    <path class="cls-3" d="M145.54,103.76v-9.43h2.96v8.52c0,2.78,1.02,4.16,3.07,4.16s3.07-1.39,3.07-4.16v-8.52h2.96v9.43c0,3.72-2.01,5.58-6.02,5.58s-6.02-1.86-6.02-5.58Z"/>
    <path class="cls-3" d="M171.52,106.4l.13,2.47c-1.31.31-2.43.46-3.36.46-2.48,0-4.45-.62-5.91-1.87-1.46-1.25-2.19-3.08-2.19-5.51s.72-4.45,2.16-5.82c1.44-1.37,3.42-2.06,5.94-2.06,1.18,0,2.3.2,3.34.61l-.21,2.49c-.92-.52-1.98-.78-3.19-.78-1.49,0-2.69.5-3.59,1.51-.9,1.01-1.35,2.29-1.35,3.84s.45,2.8,1.35,3.78c.9.99,2.12,1.48,3.66,1.48,1.37,0,2.44-.2,3.23-.61Z"/>
    <path class="cls-3" d="M176.51,109.09v-12.43h-4.23v-2.33h11.42v2.33h-4.23v12.43h-2.96Z"/>
    <path class="cls-3" d="M185.32,109.09v-14.76h2.96v14.76h-2.96Z"/>
    <path class="cls-3" d="M190.74,101.67c0-2.31.63-4.15,1.89-5.53,1.26-1.37,3.04-2.06,5.34-2.06s4.04.69,5.32,2.08c1.28,1.39,1.91,3.22,1.91,5.51s-.63,4.15-1.9,5.56c-1.27,1.41-3.04,2.11-5.33,2.11s-4.09-.7-5.35-2.09-1.88-3.26-1.88-5.58ZM193.82,101.67c0,.94.13,1.8.39,2.58.26.78.71,1.43,1.35,1.97.64.54,1.44.8,2.4.8s1.76-.27,2.4-.8c.64-.54,1.09-1.19,1.35-1.97.26-.77.39-1.63.39-2.58,0-1.45-.35-2.69-1.05-3.72-.7-1.03-1.73-1.54-3.1-1.54s-2.4.51-3.1,1.54c-.7,1.03-1.05,2.27-1.05,3.72Z"/>
    <path class="cls-3" d="M207.75,109.09v-14.76h3.64l5.62,11.03h.04v-11.03h2.83v14.76h-3.61l-5.64-11.03h-.04v11.03h-2.83Z"/>
    <path class="cls-3" d="M237.24,94.61l-.28,2.43c-.97-.42-1.97-.63-3-.63-.62,0-1.16.16-1.63.48-.46.32-.7.84-.7,1.57,0,.47.22.85.67,1.16.44.31.98.58,1.62.8.63.23,1.27.49,1.9.78.63.3,1.17.75,1.62,1.37.44.62.67,1.39.67,2.3,0,1.52-.52,2.65-1.55,3.37-1.04.73-2.36,1.09-3.98,1.09-.51,0-.99-.03-1.45-.08-.46-.06-.79-.11-.99-.16-.2-.05-.65-.16-1.34-.33l.27-2.66c1.11.61,2.23.91,3.34.91.65,0,1.25-.17,1.8-.5.55-.33.83-.8.83-1.41,0-.51-.22-.93-.67-1.27-.44-.34-.98-.62-1.62-.86-.63-.23-1.27-.5-1.9-.79-.63-.3-1.17-.75-1.62-1.35-.44-.61-.67-1.36-.67-2.26,0-1.54.5-2.67,1.49-3.4.99-.73,2.21-1.1,3.67-1.1,1.3,0,2.47.18,3.53.53Z"/>
    <path class="cls-3" d="M243.48,109.09v-12.43h-4.23v-2.33h11.42v2.33h-4.23v12.43h-2.96Z"/>
    <path class="cls-3" d="M252.44,103.76v-9.43h2.96v8.52c0,2.78,1.02,4.16,3.07,4.16s3.07-1.39,3.07-4.16v-8.52h2.96v9.43c0,3.72-2.01,5.58-6.02,5.58s-6.02-1.86-6.02-5.58Z"/>
    <path class="cls-3" d="M267.81,109.09v-14.76h4.04c5.68,0,8.52,2.46,8.52,7.38s-2.84,7.38-8.52,7.38h-4.04ZM270.77,96.66v10.1h1.65c1.31,0,2.45-.46,3.41-1.37.96-.92,1.45-2.14,1.45-3.68s-.48-2.76-1.45-3.68c-.96-.92-2.1-1.37-3.41-1.37h-1.65Z"/>
    <path class="cls-3" d="M282.82,109.09v-14.76h2.96v14.76h-2.96Z"/>
    <path class="cls-3" d="M288.23,101.67c0-2.31.63-4.15,1.89-5.53,1.26-1.37,3.04-2.06,5.34-2.06s4.04.69,5.32,2.08c1.27,1.39,1.91,3.22,1.91,5.51s-.63,4.15-1.9,5.56c-1.27,1.41-3.04,2.11-5.33,2.11s-4.09-.7-5.35-2.09c-1.25-1.4-1.88-3.26-1.88-5.58ZM291.32,101.67c0,.94.13,1.8.39,2.58.26.78.71,1.43,1.35,1.97.64.54,1.44.8,2.4.8s1.76-.27,2.4-.8c.64-.54,1.09-1.19,1.35-1.97.26-.77.39-1.63.39-2.58,0-1.45-.35-2.69-1.05-3.72-.7-1.03-1.73-1.54-3.1-1.54s-2.4.51-3.1,1.54c-.7,1.03-1.04,2.27-1.04,3.72Z"/>
    <rect class="cls-7" x="15.62" y="80.68" width="287.07" height="6.33"/>
    <g class="cls-11">
      <g class="cls-10">
        <g>
          <line class="cls-9" x1="159.29" y1="23.13" x2="159.28" y2="1.68"/>
          <line class="cls-9" x1="170.54" y1="138.79" x2="249.45" y2="93.23"/>
          <line class="cls-9" x1="169.24" y1="136.93" x2="239.04" y2="78.36"/>
          <line class="cls-9" x1="167.64" y1="135.33" x2="226.21" y2="65.53"/>
          <line class="cls-9" x1="165.78" y1="134.03" x2="211.34" y2="55.12"/>
          <line class="cls-9" x1="163.73" y1="133.07" x2="194.89" y2="47.45"/>
          <line class="cls-9" x1="161.54" y1="132.48" x2="177.36" y2="42.75"/>
          <line class="cls-9" x1="159.28" y1="132.29" x2="159.28" y2="41.17"/>
          <line class="cls-9" x1="157.03" y1="132.48" x2="141.2" y2="42.75"/>
          <line class="cls-9" x1="154.84" y1="133.07" x2="123.67" y2="47.45"/>
          <line class="cls-9" x1="152.78" y1="134.03" x2="107.22" y2="55.12"/>
          <line class="cls-9" x1="150.93" y1="135.33" x2="92.36" y2="65.53"/>
          <line class="cls-9" x1="149.32" y1="136.93" x2="79.52" y2="78.36"/>
          <line class="cls-9" x1="148.02" y1="138.79" x2="69.11" y2="93.23"/>
          <g>
            <line class="cls-9" x1="138.08" y1="24.98" x2="134.35" y2="3.86"/>
            <line class="cls-9" x1="156.98" y1="13.27" x2="156.78" y2="1.7"/>
            <line class="cls-9" x1="154.68" y1="13.34" x2="154.27" y2="1.77"/>
            <line class="cls-9" x1="152.38" y1="13.44" x2="151.77" y2="1.87"/>
            <line class="cls-9" x1="150.08" y1="13.58" x2="149.27" y2="2.03"/>
            <line class="cls-9" x1="145.49" y1="13.98" x2="144.27" y2="2.46"/>
            <line class="cls-9" x1="143.2" y1="14.24" x2="141.78" y2="2.75"/>
            <line class="cls-9" x1="140.91" y1="14.54" x2="139.3" y2="3.08"/>
            <line class="cls-9" x1="138.63" y1="14.88" x2="136.82" y2="3.45"/>
            <line class="cls-9" x1="148.2" y1="18.5" x2="146.77" y2="2.22"/>
          </g>
          <g>
            <line class="cls-9" x1="117.5" y1="30.49" x2="110.17" y2="10.34"/>
            <line class="cls-9" x1="134.09" y1="15.68" x2="131.88" y2="4.32"/>
            <line class="cls-9" x1="131.84" y1="16.14" x2="129.43" y2="4.81"/>
            <line class="cls-9" x1="129.59" y1="16.64" x2="126.98" y2="5.36"/>
            <line class="cls-9" x1="127.35" y1="17.17" x2="124.54" y2="5.94"/>
            <line class="cls-9" x1="122.9" y1="18.37" x2="119.7" y2="7.24"/>
            <line class="cls-9" x1="120.69" y1="19.02" x2="117.3" y2="7.95"/>
            <line class="cls-9" x1="118.49" y1="19.72" x2="114.91" y2="8.71"/>
            <line class="cls-9" x1="116.3" y1="20.45" x2="112.53" y2="9.5"/>
            <line class="cls-9" x1="126.35" y1="22.35" x2="122.12" y2="6.57"/>
          </g>
          <g>
            <line class="cls-9" x1="98.21" y1="39.49" x2="87.48" y2="20.92"/>
            <line class="cls-9" x1="111.97" y1="22.02" x2="107.82" y2="11.22"/>
            <line class="cls-9" x1="109.83" y1="22.87" x2="105.49" y2="12.13"/>
            <line class="cls-9" x1="107.7" y1="23.75" x2="103.17" y2="13.09"/>
            <line class="cls-9" x1="105.59" y1="24.67" x2="100.87" y2="14.09"/>
            <line class="cls-9" x1="101.41" y1="26.62" x2="96.33" y2="16.21"/>
            <line class="cls-9" x1="99.35" y1="27.64" x2="94.09" y2="17.33"/>
            <line class="cls-9" x1="97.3" y1="28.71" x2="91.86" y2="18.49"/>
            <line class="cls-9" x1="95.28" y1="29.81" x2="89.66" y2="19.68"/>
            <line class="cls-9" x1="105.5" y1="29.94" x2="98.59" y2="15.13"/>
          </g>
          <g>
            <line class="cls-9" x1="80.76" y1="51.7" x2="66.97" y2="35.27"/>
            <line class="cls-9" x1="91.28" y1="32.11" x2="85.32" y2="22.19"/>
            <line class="cls-9" x1="89.32" y1="33.31" x2="83.18" y2="23.5"/>
            <line class="cls-9" x1="87.38" y1="34.55" x2="81.07" y2="24.84"/>
            <line class="cls-9" x1="85.45" y1="35.82" x2="78.98" y2="26.23"/>
            <line class="cls-9" x1="81.68" y1="38.47" x2="74.87" y2="29.1"/>
            <line class="cls-9" x1="79.83" y1="39.84" x2="72.86" y2="30.59"/>
            <line class="cls-9" x1="78" y1="41.24" x2="70.87" y2="32.12"/>
            <line class="cls-9" x1="76.2" y1="42.68" x2="68.91" y2="33.68"/>
            <line class="cls-9" x1="86.28" y1="41.03" x2="76.91" y2="27.65"/>
          </g>
          <g>
            <line class="cls-9" x1="65.7" y1="66.76" x2="49.27" y2="52.98"/>
            <line class="cls-9" x1="72.66" y1="45.64" x2="65.07" y2="36.9"/>
            <line class="cls-9" x1="70.94" y1="47.16" x2="63.19" y2="38.56"/>
            <line class="cls-9" x1="69.24" y1="48.72" x2="61.34" y2="40.26"/>
            <line class="cls-9" x1="67.57" y1="50.31" x2="59.52" y2="41.98"/>
            <line class="cls-9" x1="64.31" y1="53.56" x2="55.98" y2="45.53"/>
            <line class="cls-9" x1="62.72" y1="55.24" x2="54.25" y2="47.34"/>
            <line class="cls-9" x1="61.16" y1="56.94" x2="52.56" y2="49.19"/>
            <line class="cls-9" x1="59.64" y1="58.66" x2="50.9" y2="51.07"/>
            <line class="cls-9" x1="69.29" y1="55.29" x2="57.73" y2="43.74"/>
          </g>
          <g>
            <line class="cls-9" x1="53.49" y1="84.2" x2="34.91" y2="73.48"/>
            <line class="cls-9" x1="56.67" y1="62.19" x2="47.67" y2="54.91"/>
            <line class="cls-9" x1="55.24" y1="64" x2="46.11" y2="56.87"/>
            <line class="cls-9" x1="53.84" y1="65.82" x2="44.59" y2="58.86"/>
            <line class="cls-9" x1="52.47" y1="67.68" x2="43.1" y2="60.87"/>
            <line class="cls-9" x1="49.82" y1="71.45" x2="40.22" y2="64.98"/>
            <line class="cls-9" x1="48.55" y1="73.37" x2="38.84" y2="67.07"/>
            <line class="cls-9" x1="47.31" y1="75.32" x2="37.49" y2="69.18"/>
            <line class="cls-9" x1="46.11" y1="77.28" x2="36.18" y2="71.32"/>
            <line class="cls-9" x1="55.03" y1="72.28" x2="41.64" y2="62.91"/>
          </g>
          <g>
            <line class="cls-9" x1="44.49" y1="103.5" x2="24.33" y2="96.17"/>
            <line class="cls-9" x1="43.8" y1="81.27" x2="33.68" y2="75.66"/>
            <line class="cls-9" x1="42.7" y1="83.3" x2="32.48" y2="77.87"/>
            <line class="cls-9" x1="41.64" y1="85.34" x2="31.32" y2="80.09"/>
            <line class="cls-9" x1="40.61" y1="87.4" x2="30.21" y2="82.33"/>
            <line class="cls-9" x1="38.66" y1="91.58" x2="28.09" y2="86.87"/>
            <line class="cls-9" x1="37.74" y1="93.69" x2="27.09" y2="89.17"/>
            <line class="cls-9" x1="36.86" y1="95.82" x2="26.13" y2="91.49"/>
            <line class="cls-9" x1="36.02" y1="97.97" x2="25.21" y2="93.82"/>
            <line class="cls-9" x1="43.93" y1="91.5" x2="29.12" y2="84.59"/>
          </g>
          <g>
            <line class="cls-9" x1="34.44" y1="102.3" x2="23.49" y2="98.53"/>
            <line class="cls-9" x1="33.71" y1="104.48" x2="22.7" y2="100.91"/>
            <line class="cls-9" x1="33.02" y1="106.68" x2="21.94" y2="103.3"/>
            <line class="cls-9" x1="32.36" y1="108.89" x2="21.23" y2="105.7"/>
            <line class="cls-9" x1="36.34" y1="112.34" x2="20.56" y2="108.12"/>
          </g>
          <g>
            <line class="cls-9" x1="274.08" y1="103.52" x2="294.24" y2="96.18"/>
            <line class="cls-9" x1="286.21" y1="108.91" x2="297.33" y2="105.71"/>
            <line class="cls-9" x1="285.55" y1="106.69" x2="296.62" y2="103.31"/>
            <line class="cls-9" x1="284.86" y1="104.5" x2="295.86" y2="100.92"/>
            <line class="cls-9" x1="284.13" y1="102.31" x2="295.07" y2="98.54"/>
            <line class="cls-9" x1="282.22" y1="112.36" x2="298" y2="108.12"/>
          </g>
          <g>
            <line class="cls-9" x1="265.08" y1="84.21" x2="283.66" y2="73.49"/>
            <line class="cls-9" x1="282.55" y1="97.98" x2="293.36" y2="93.83"/>
            <line class="cls-9" x1="281.71" y1="95.84" x2="292.44" y2="91.5"/>
            <line class="cls-9" x1="280.82" y1="93.71" x2="291.48" y2="89.18"/>
            <line class="cls-9" x1="279.91" y1="91.59" x2="290.48" y2="86.88"/>
            <line class="cls-9" x1="277.96" y1="87.42" x2="288.36" y2="82.34"/>
            <line class="cls-9" x1="276.93" y1="85.35" x2="287.25" y2="80.1"/>
            <line class="cls-9" x1="275.86" y1="83.31" x2="286.09" y2="77.87"/>
            <line class="cls-9" x1="274.77" y1="81.28" x2="284.89" y2="75.67"/>
            <line class="cls-9" x1="274.63" y1="91.51" x2="289.44" y2="84.6"/>
          </g>
          <g>
            <line class="cls-9" x1="252.87" y1="66.77" x2="269.3" y2="52.98"/>
            <line class="cls-9" x1="272.46" y1="77.29" x2="282.38" y2="71.33"/>
            <line class="cls-9" x1="271.26" y1="75.33" x2="281.07" y2="69.19"/>
            <line class="cls-9" x1="270.02" y1="73.39" x2="279.73" y2="67.08"/>
            <line class="cls-9" x1="268.75" y1="71.46" x2="278.34" y2="64.99"/>
            <line class="cls-9" x1="266.11" y1="67.69" x2="275.47" y2="60.88"/>
            <line class="cls-9" x1="264.73" y1="65.84" x2="273.98" y2="58.87"/>
            <line class="cls-9" x1="263.33" y1="64.01" x2="272.45" y2="56.88"/>
            <line class="cls-9" x1="261.9" y1="62.2" x2="270.89" y2="54.92"/>
            <line class="cls-9" x1="263.54" y1="72.29" x2="276.92" y2="62.92"/>
          </g>
          <g>
            <line class="cls-9" x1="237.81" y1="51.71" x2="251.6" y2="35.28"/>
            <line class="cls-9" x1="258.93" y1="58.67" x2="267.67" y2="51.07"/>
            <line class="cls-9" x1="257.41" y1="56.95" x2="266.01" y2="49.2"/>
            <line class="cls-9" x1="255.85" y1="55.25" x2="264.31" y2="47.35"/>
            <line class="cls-9" x1="254.27" y1="53.58" x2="262.59" y2="45.53"/>
            <line class="cls-9" x1="251.01" y1="50.32" x2="259.05" y2="41.99"/>
            <line class="cls-9" x1="249.34" y1="48.73" x2="257.23" y2="40.26"/>
            <line class="cls-9" x1="247.63" y1="47.18" x2="255.38" y2="38.57"/>
            <line class="cls-9" x1="245.91" y1="45.65" x2="253.5" y2="36.91"/>
            <line class="cls-9" x1="249.28" y1="55.3" x2="260.83" y2="43.74"/>
          </g>
          <g>
            <line class="cls-9" x1="220.37" y1="39.5" x2="231.09" y2="20.92"/>
            <line class="cls-9" x1="242.38" y1="42.68" x2="249.66" y2="33.68"/>
            <line class="cls-9" x1="240.58" y1="41.25" x2="247.7" y2="32.12"/>
            <line class="cls-9" x1="238.75" y1="39.85" x2="245.71" y2="30.6"/>
            <line class="cls-9" x1="236.9" y1="38.48" x2="243.7" y2="29.11"/>
            <line class="cls-9" x1="233.12" y1="35.83" x2="239.59" y2="26.23"/>
            <line class="cls-9" x1="231.2" y1="34.56" x2="237.51" y2="24.85"/>
            <line class="cls-9" x1="229.25" y1="33.32" x2="235.39" y2="23.51"/>
            <line class="cls-9" x1="227.29" y1="32.12" x2="233.25" y2="22.2"/>
            <line class="cls-9" x1="232.29" y1="41.04" x2="241.66" y2="27.65"/>
          </g>
          <g>
            <line class="cls-9" x1="201.07" y1="30.5" x2="208.41" y2="10.34"/>
            <line class="cls-9" x1="223.3" y1="29.81" x2="228.91" y2="19.68"/>
            <line class="cls-9" x1="221.28" y1="28.72" x2="226.7" y2="18.49"/>
            <line class="cls-9" x1="219.23" y1="27.65" x2="224.48" y2="17.33"/>
            <line class="cls-9" x1="217.17" y1="26.62" x2="222.24" y2="16.21"/>
            <line class="cls-9" x1="213" y1="24.67" x2="217.7" y2="14.09"/>
            <line class="cls-9" x1="210.88" y1="23.75" x2="215.4" y2="13.1"/>
            <line class="cls-9" x1="208.75" y1="22.87" x2="213.08" y2="12.14"/>
            <line class="cls-9" x1="206.61" y1="22.03" x2="210.75" y2="11.22"/>
            <line class="cls-9" x1="213.08" y1="29.94" x2="219.98" y2="15.14"/>
          </g>
          <g>
            <line class="cls-9" x1="180.5" y1="24.98" x2="184.23" y2="3.86"/>
            <line class="cls-9" x1="202.27" y1="20.45" x2="206.04" y2="9.5"/>
            <line class="cls-9" x1="200.09" y1="19.72" x2="203.66" y2="8.71"/>
            <line class="cls-9" x1="197.89" y1="19.03" x2="201.27" y2="7.96"/>
            <line class="cls-9" x1="195.68" y1="18.37" x2="198.87" y2="7.24"/>
            <line class="cls-9" x1="191.24" y1="17.18" x2="194.03" y2="5.94"/>
            <line class="cls-9" x1="188.99" y1="16.64" x2="191.59" y2="5.36"/>
            <line class="cls-9" x1="186.74" y1="16.14" x2="189.15" y2="4.82"/>
            <line class="cls-9" x1="184.48" y1="15.68" x2="186.69" y2="4.32"/>
            <line class="cls-9" x1="192.23" y1="22.36" x2="196.46" y2="6.57"/>
          </g>
          <g>
            <line class="cls-9" x1="179.94" y1="14.88" x2="181.75" y2="3.45"/>
            <line class="cls-9" x1="177.66" y1="14.54" x2="179.27" y2="3.08"/>
            <line class="cls-9" x1="175.38" y1="14.24" x2="176.79" y2="2.75"/>
            <line class="cls-9" x1="173.09" y1="13.98" x2="174.3" y2="2.46"/>
            <line class="cls-9" x1="168.5" y1="13.58" x2="169.3" y2="2.03"/>
            <line class="cls-9" x1="166.2" y1="13.44" x2="166.8" y2="1.87"/>
            <line class="cls-9" x1="163.9" y1="13.34" x2="164.3" y2="1.77"/>
            <line class="cls-9" x1="161.59" y1="13.28" x2="161.79" y2="1.7"/>
            <line class="cls-9" x1="170.38" y1="18.5" x2="171.8" y2="2.23"/>
          </g>
          <text class="cls-6" transform="translate(157.63 30.21)"><tspan x="0" y="0">0</tspan></text>
          <text class="cls-6" transform="translate(156 38.48)"><tspan x="0" y="0">90</tspan></text>
          <text class="cls-1" transform="translate(135.16 31.62) rotate(-10)"><tspan x="0" y="0">10</tspan></text>
          <text class="cls-1" transform="translate(137.53 40.69) rotate(-10)"><tspan x="0" y="0">80</tspan></text>
          <text class="cls-4" transform="translate(116.81 38.24) rotate(-20)"><tspan x="0" y="0">20</tspan></text>
          <text class="cls-4" transform="translate(119.63 46.01) rotate(-20)"><tspan x="0" y="0">70</tspan></text>
          <text class="cls-5" transform="translate(98.93 47.33) rotate(-30)"><tspan x="0" y="0">30</tspan></text>
          <text class="cls-5" transform="translate(103.07 54.49) rotate(-30)"><tspan x="0" y="0">60</tspan></text>
          <text class="cls-2" transform="translate(82.79 59.2) rotate(-40)"><tspan x="0" y="0">40</tspan></text>
          <text class="cls-2" transform="translate(88.1 65.54) rotate(-40)"><tspan x="0" y="0">50</tspan></text>
          <text class="cls-2" transform="translate(68.97 73.83) rotate(-50)"><tspan x="0" y="0">50</tspan></text>
          <text class="cls-2" transform="translate(75.3 79.15) rotate(-50)"><tspan x="0" y="0">40</tspan></text>
          <text class="cls-5" transform="translate(58.03 90.64) rotate(-60)"><tspan x="0" y="0">60</tspan></text>
          <text class="cls-5" transform="translate(65.19 94.77) rotate(-60)"><tspan x="0" y="0">30</tspan></text>
          <text class="cls-4" transform="translate(49.99 108.99) rotate(-70)"><tspan x="0" y="0">70</tspan></text>
          <text class="cls-4" transform="translate(57.75 111.82) rotate(-70)"><tspan x="0" y="0">20</tspan></text>
          <text class="cls-4" transform="translate(266.27 102.8) rotate(70)"><tspan x="0" y="0">70</tspan></text>
          <text class="cls-4" transform="translate(257.94 104.09) rotate(70)"><tspan x="0" y="0">160</tspan></text>
          <text class="cls-5" transform="translate(257.34 84.96) rotate(60)"><tspan x="0" y="0">60</tspan></text>
          <text class="cls-5" transform="translate(249.36 87.67) rotate(60)"><tspan x="0" y="0">150</tspan></text>
          <text class="cls-4" transform="translate(245.31 68.75) rotate(50)"><tspan x="0" y="0">50</tspan></text>
          <text class="cls-4" transform="translate(237.93 72.82) rotate(50)"><tspan x="0" y="0">140</tspan></text>
          <text class="cls-4" transform="translate(230.69 55.02) rotate(40)"><tspan x="0" y="0">40</tspan></text>
          <text class="cls-4" transform="translate(224.12 60.3) rotate(40)"><tspan x="0" y="0">130</tspan></text>
          <text class="cls-5" transform="translate(214.03 44.02) rotate(30)"><tspan x="0" y="0">30</tspan></text>
          <text class="cls-5" transform="translate(208.48 50.36) rotate(30)"><tspan x="0" y="0">120</tspan></text>
          <text class="cls-4" transform="translate(195.51 36) rotate(20)"><tspan x="0" y="0">20</tspan></text>
          <text class="cls-4" transform="translate(191.15 43.21) rotate(20)"><tspan x="0" y="0">110</tspan></text>
          <text class="cls-1" transform="translate(176.05 31.43) rotate(10)"><tspan x="0" y="0">10</tspan></text>
          <text class="cls-1" transform="translate(173 39.28) rotate(10)"><tspan x="0" y="0">100</tspan></text>
        </g>
      </g>
    </g>
  </g>
</svg>